<svg width="40" height="40" viewBox="0 0 40 40" fill="none" xmlns="http://www.w3.org/2000/svg">
<g clip-path="url(#clip0)">
<path d="M40 13.4405L35.7144 7.65439L36.5317 14.8083L37.6224 14.3778C40.7264 24.1731 35.302 34.6299 25.5068 37.7338C15.7116 40.8378 5.25467 35.4135 2.15077 25.6183C-0.953219 15.8231 4.4711 5.36622 14.2663 2.26231C19.9936 0.447443 26.2449 1.50993 31.0509 5.11521C31.3344 5.3278 31.7365 5.27039 31.9491 4.9869C32.1617 4.70341 32.1042 4.30132 31.8207 4.08873C23.0332 -2.50097 10.5674 -0.719138 3.97782 8.06851C-2.61179 16.8562 -0.829961 29.3219 7.95769 35.9115C16.7453 42.5011 29.2111 40.7193 35.8007 31.9317C39.6725 26.7684 40.7982 20.0475 38.8202 13.9044L40 13.4405Z" fill="black"/>
<path d="M20.5296 8.45117H19.2465C16.0591 8.4547 13.476 11.0377 13.4725 14.2251V17.4329H12.1894C11.8351 17.4329 11.5479 17.7201 11.5479 18.0744V30.9055C11.5479 31.2598 11.8351 31.547 12.1894 31.547H27.5866C27.9409 31.547 28.2282 31.2598 28.2282 30.9055V18.0744C28.2282 17.7201 27.9409 17.4329 27.5866 17.4329H26.3035V14.2251C26.2999 11.0377 23.717 8.4547 20.5296 8.45117ZM14.7556 14.2251C14.7588 11.7463 16.7676 9.73748 19.2465 9.73427H20.5296C23.0084 9.73748 25.0172 11.7463 25.0204 14.2251V17.4329H14.7556V14.2251ZM26.9451 18.716V30.2639H12.831V18.716H26.9451Z" fill="black"/>
</g>
<defs>
<clipPath id="clip0">
<path d="M0 0H40V40H0V0Z" fill="white"/>
</clipPath>
</defs>
</svg>
