<svg width="40" height="40" viewBox="0 0 40 40" fill="none" xmlns="http://www.w3.org/2000/svg">
<path d="M36.1655 26.3641L37.2798 26.7106C33.5778 36.2571 22.8378 40.9949 13.2914 37.2929C8.06617 35.2666 4.03806 30.9856 2.33338 25.6468C2.22606 25.3103 1.8663 25.1246 1.52979 25.2319C1.19328 25.3393 1.00757 25.699 1.11489 26.0355C4.44577 36.4616 15.598 42.2134 26.0241 38.8826C31.7579 37.0507 36.3485 32.7123 38.5008 27.091L39.7155 27.4675L40 20.2979L36.1655 26.3641Z" fill="black"/>
<path d="M2.717 13.2957C6.41716 3.74856 17.1562 -0.991408 26.7034 2.70875C31.976 4.75225 36.0277 9.09026 37.7068 14.4899C37.7907 14.7565 38.0379 14.9377 38.3174 14.9374C38.3823 14.9374 38.447 14.9277 38.5092 14.9086C38.8463 14.8038 39.0347 14.4455 38.9299 14.1084C38.9299 14.1083 38.9299 14.1083 38.9298 14.1082C35.6785 3.65706 24.5704 -2.17962 14.1192 1.07175C8.31866 2.87624 3.66611 7.24142 1.49595 12.9153L0.284486 12.5388L0 19.7085L3.83129 13.6422L2.717 13.2957Z" fill="black"/>
<path d="M20.6375 6.57802C20.6375 6.22496 20.3512 5.93872 19.9982 5.93872C19.6451 5.93872 19.3589 6.22496 19.3589 6.57802V28.314C19.3589 28.6671 19.6451 28.9533 19.9982 28.9533C20.3512 28.9533 20.6375 28.6671 20.6375 28.314V6.57802Z" fill="black"/>
<path d="M19.9982 30.2319C19.6451 30.2319 19.3589 30.5182 19.3589 30.8712V33.4284C19.3589 33.7815 19.6451 34.0677 19.9982 34.0677C20.3512 34.0677 20.6375 33.7815 20.6375 33.4284V30.8712C20.6375 30.5182 20.3512 30.2319 19.9982 30.2319Z" fill="black"/>
</svg>
