<svg width="80" height="80" viewBox="0 0 80 80" fill="none" xmlns="http://www.w3.org/2000/svg">
<path d="M64.8812 0H26.1771C26.1623 0 26.1478 0.00172786 26.1329 0.00224622C26.1184 0.00276458 26.1042 0.00345572 26.0897 0.00431965C26.0344 0.00794816 25.9798 0.0141685 25.9266 0.0245356C25.9256 0.0247084 25.9247 0.0247084 25.9237 0.025054C25.8661 0.0364579 25.8105 0.052527 25.7559 0.0711879C25.746 0.0746436 25.7362 0.0782721 25.7265 0.0820734C25.6752 0.10108 25.6251 0.122678 25.5771 0.147732C25.5739 0.14946 25.5707 0.15067 25.5675 0.152397C25.5171 0.179352 25.4692 0.210108 25.4231 0.243283C25.4126 0.250713 25.4024 0.258661 25.392 0.266436C25.3462 0.301339 25.302 0.338315 25.2614 0.378747C25.2612 0.37892 25.2609 0.379093 25.2607 0.379266L11.4378 14.2022C11.4376 14.2023 11.4374 14.2025 11.4373 14.2027C11.3967 14.2435 11.3597 14.2877 11.3248 14.3335C11.317 14.3438 11.3092 14.354 11.3016 14.3644C11.2685 14.4105 11.2377 14.4584 11.2107 14.5087C11.209 14.5121 11.2075 14.5156 11.2057 14.519C11.1809 14.5667 11.1594 14.6163 11.1404 14.6673C11.1366 14.6775 11.1328 14.6875 11.1292 14.6979C11.1105 14.752 11.0946 14.8073 11.0832 14.8644C11.0829 14.8665 11.0827 14.8688 11.0822 14.8708C11.0722 14.9229 11.0661 14.9761 11.0623 15.03C11.0613 15.0452 11.0606 15.0602 11.0601 15.0754C11.0601 15.0901 11.0583 15.1043 11.0583 15.1188V75.9395C11.0583 78.1785 12.8799 80 15.1188 80H64.8812C67.1202 80 68.9417 78.1785 68.9417 75.9395V4.06048C68.9417 1.82151 67.1202 0 64.8812 0ZM24.8812 4.42436V12.3542C24.8812 13.1641 24.2224 13.8229 23.4126 13.8229H15.4827L24.8812 4.42436ZM66.3499 75.9395C66.3499 76.7494 65.6911 77.4082 64.8812 77.4082H15.1188C14.309 77.4082 13.6501 76.7494 13.6501 75.9395V16.4147H23.4126C25.6515 16.4147 27.473 14.5932 27.473 12.3542V2.59179H64.8812C65.6911 2.59179 66.3499 3.25063 66.3499 4.06048V75.9395Z" fill="black"/>
<path d="M23.4126 21.9438H56.5875C57.3032 21.9438 57.8834 21.3638 57.8834 20.648C57.8834 19.9321 57.3032 19.3521 56.5875 19.3521H23.4126C22.6969 19.3521 22.1167 19.9321 22.1167 20.648C22.1167 21.3638 22.6969 21.9438 23.4126 21.9438Z" fill="black"/>
<path d="M23.4126 28.8552H56.5875C57.3032 28.8552 57.8834 28.2752 57.8834 27.5593C57.8834 26.8435 57.3032 26.2634 56.5875 26.2634H23.4126C22.6969 26.2634 22.1167 26.8435 22.1167 27.5593C22.1167 28.2752 22.6969 28.8552 23.4126 28.8552Z" fill="black"/>
<path d="M23.4126 35.7668H56.5875C57.3032 35.7668 57.8834 35.1868 57.8834 34.4709C57.8834 33.7551 57.3032 33.175 56.5875 33.175H23.4126C22.6969 33.175 22.1167 33.7551 22.1167 34.4709C22.1167 35.1868 22.6969 35.7668 23.4126 35.7668Z" fill="black"/>
<path d="M23.4126 42.6782H56.5875C57.3032 42.6782 57.8834 42.0982 57.8834 41.3823C57.8834 40.6665 57.3032 40.0864 56.5875 40.0864H23.4126C22.6969 40.0864 22.1167 40.6665 22.1167 41.3823C22.1167 42.0982 22.6969 42.6782 23.4126 42.6782Z" fill="black"/>
<path d="M23.4126 49.5896H56.5875C57.3032 49.5896 57.8834 49.0096 57.8834 48.2937C57.8834 47.5778 57.3032 46.9978 56.5875 46.9978H23.4126C22.6969 46.9978 22.1167 47.5778 22.1167 48.2937C22.1167 49.0096 22.6969 49.5896 23.4126 49.5896Z" fill="black"/>
<path d="M40.0001 56.6738H23.4126C22.6969 56.6738 22.1167 57.2539 22.1167 57.9697C22.1167 58.6856 22.6969 59.2656 23.4126 59.2656H40.0001C40.7157 59.2656 41.296 58.6856 41.296 57.9697C41.296 57.2539 40.7157 56.6738 40.0001 56.6738Z" fill="black"/>
<path d="M40.0001 63.5852H23.4126C22.6969 63.5852 22.1167 64.1652 22.1167 64.8811C22.1167 65.597 22.6969 66.177 23.4126 66.177H40.0001C40.7157 66.177 41.296 65.597 41.296 64.8811C41.296 64.1652 40.7157 63.5852 40.0001 63.5852Z" fill="black"/>
<path d="M51.7495 59.4385C50.6539 59.4385 49.7625 60.3299 49.7625 61.4255C49.7625 62.5212 50.6539 63.4126 51.7495 63.4126C52.8451 63.4126 53.7365 62.5212 53.7365 61.4255C53.7365 60.3299 52.8451 59.4385 51.7495 59.4385Z" fill="black"/>
<path d="M51.7496 53.9092C47.6051 53.9092 44.2334 57.2809 44.2334 61.4254C44.2334 65.5698 47.6051 68.9416 51.7496 68.9416C55.894 68.9416 59.2658 65.5698 59.2658 61.4254C59.2658 57.2809 55.894 53.9092 51.7496 53.9092ZM51.7496 66.3498C49.0343 66.3498 46.8252 64.1407 46.8252 61.4254C46.8252 58.71 49.0343 56.501 51.7496 56.501C54.4649 56.501 56.674 58.71 56.674 61.4254C56.674 64.1407 54.4649 66.3498 51.7496 66.3498Z" fill="black"/>
</svg>
