<svg width="80" height="80" viewBox="0 0 80 80" fill="none" xmlns="http://www.w3.org/2000/svg">
<path d="M70.3239 33.3882V4.06048C70.3239 1.82151 68.5024 0 66.2634 0H13.7364C11.4975 0 9.67596 1.82151 9.67596 4.06048V33.3882C8.07077 33.9304 6.91138 35.4495 6.91138 37.2354V75.9395C6.91138 78.1785 8.73289 80 10.9719 80H69.028C71.267 80 73.0885 78.1785 73.0885 75.9395V37.2354C73.0885 35.4495 71.9291 33.9304 70.3239 33.3882ZM62.2593 33.1749L45.7922 20.6286L67.725 3.91793C67.7293 3.96492 67.7321 4.01227 67.7321 4.06048V33.1749H62.2593ZM12.2677 4.06048C12.2677 4.01244 12.2703 3.96492 12.275 3.91793L34.2066 20.6277L17.7382 33.1749H12.2677V4.06048ZM42.5656 19.8286C41.055 20.9795 38.9451 20.9795 37.4344 19.8286L14.8108 2.59179H65.1889L42.5656 19.8286ZM36.3683 22.239C37.4745 22.9337 38.7372 23.2819 39.9999 23.2819C41.2623 23.2819 42.5245 22.9341 43.6303 22.2398L57.9828 33.1749H22.0148L36.3683 22.239ZM70.4967 75.9395C70.4967 76.7494 69.8378 77.4082 69.028 77.4082H10.9719C10.162 77.4082 9.50317 76.7494 9.50317 75.9395V37.2354C9.50317 36.4256 10.162 35.7667 10.9719 35.7667H69.028C69.8378 35.7667 70.4967 36.4256 70.4967 37.2354V75.9395Z" fill="black"/>
<path d="M17.8832 40.0864C15.6443 40.0864 13.8228 41.9079 13.8228 44.1469C13.8228 46.3859 15.6443 48.2074 17.8832 48.2074C20.1222 48.2074 21.9437 46.3859 21.9437 44.1469C21.9437 41.9079 20.1222 40.0864 17.8832 40.0864ZM17.8832 45.6156C17.0734 45.6156 16.4145 44.9568 16.4145 44.1469C16.4145 43.3371 17.0734 42.6782 17.8832 42.6782C18.6931 42.6782 19.3519 43.3371 19.3519 44.1469C19.3519 44.9568 18.6931 45.6156 17.8832 45.6156Z" fill="black"/>
<path d="M64.8811 70.4968H53.8228C53.1069 70.4968 52.5269 71.077 52.5269 71.7927C52.5269 72.5084 53.1069 73.0886 53.8228 73.0886H64.8811C65.5969 73.0886 66.177 72.5084 66.177 71.7927C66.177 71.077 65.5969 70.4968 64.8811 70.4968Z" fill="black"/>
<path d="M64.8812 64.9675H41.3823C40.6665 64.9675 40.0864 65.5477 40.0864 66.2634C40.0864 66.9791 40.6665 67.5593 41.3823 67.5593H64.8812C65.5971 67.5593 66.1771 66.9791 66.1771 66.2634C66.1771 65.5477 65.5971 64.9675 64.8812 64.9675Z" fill="black"/>
<path d="M64.8812 59.4385H41.3823C40.6665 59.4385 40.0864 60.0187 40.0864 60.7344C40.0864 61.4501 40.6665 62.0303 41.3823 62.0303H64.8812C65.5971 62.0303 66.1771 61.4501 66.1771 60.7344C66.1771 60.0187 65.5971 59.4385 64.8812 59.4385Z" fill="black"/>
</svg>
