<svg width="70" height="70" viewBox="0 0 70 70" fill="none" xmlns="http://www.w3.org/2000/svg">
<path d="M66.447 57.8309H65.1619V56.5458C65.1619 54.5867 63.5681 52.9929 61.609 52.9929H49.514C47.5549 52.9929 45.9611 54.5867 45.9611 56.5458V57.8309H44.676C42.7169 57.8309 41.123 59.4248 41.123 61.3838V63.8029C41.123 64.4291 41.6307 64.9368 42.257 64.9368H68.866C69.4922 64.9368 69.9999 64.4291 69.9999 63.8029V61.3838C69.9999 59.4248 68.4061 57.8309 66.447 57.8309ZM48.2289 56.5458C48.2289 55.8372 48.8054 55.2607 49.514 55.2607H61.609C62.3176 55.2607 62.8941 55.8372 62.8941 56.5458V57.8309H48.2289V56.5458ZM67.7321 62.6689H43.3909V61.3838C43.3909 60.6752 43.9673 60.0988 44.676 60.0988H66.447C67.1556 60.0988 67.7321 60.6752 67.7321 61.3838V62.6689Z" fill="black"/>
<path d="M43.3911 33.4185L43.3376 33.472C41.9522 34.8573 41.9522 37.1112 43.3376 38.4964C44.0085 39.1674 44.9008 39.537 45.8498 39.537C46.7989 39.537 47.691 39.1674 48.3621 38.4964L55.2041 31.6546C55.8751 30.9836 56.2448 30.0913 56.2448 29.1423C56.2448 28.1933 55.8751 27.301 55.2041 26.63C54.5332 25.959 53.6409 25.5894 52.6919 25.5894C51.7429 25.5894 50.8505 25.959 50.1796 26.63L50.1262 26.6835L47.4961 24.0533C47.7225 23.2609 47.5252 22.3719 46.9023 21.749L39.5592 14.406C38.9363 13.7831 38.0473 13.5858 37.255 13.8123L34.6248 11.1822L34.6781 11.1287C35.3491 10.4577 35.7187 9.5654 35.7187 8.61639C35.7187 7.66739 35.3491 6.77523 34.6781 6.1041C34.0071 5.43313 33.1148 5.06348 32.1658 5.06348C31.2168 5.06348 30.3245 5.43313 29.6535 6.1041L22.8117 12.9461C22.1407 13.6171 21.7711 14.5094 21.7711 15.4584C21.7711 16.4074 22.1407 17.2997 22.8117 17.9707C23.5043 18.6634 24.4141 19.0097 25.324 19.0097C26.2338 19.0097 27.1437 18.6633 27.8363 17.9707L27.8898 17.9172L30.5192 20.5466C30.4597 20.7548 30.4275 20.9721 30.4275 21.1946C30.4275 21.8207 30.6712 22.4091 31.1139 22.8516L31.4178 23.1555L29.0669 25.5065C28.3167 26.2567 27.9764 27.2613 28.0387 28.2451L1.04063 55.2431C0.369654 55.914 0 56.8062 0 57.7553C0 58.7045 0.369654 59.5967 1.04063 60.2676C1.7116 60.9386 2.60391 61.3083 3.55292 61.3083C4.50192 61.3083 5.39423 60.9386 6.06521 60.2676L33.0631 33.2697C33.1386 33.2744 33.214 33.2804 33.2895 33.2804C34.1992 33.2804 35.1092 32.9341 35.8017 32.2415L38.1527 29.8907L38.4566 30.1945C38.8993 30.6372 39.4877 30.8811 40.1136 30.8811C40.3362 30.8811 40.5534 30.8489 40.7616 30.7893L43.3911 33.4185ZM52.6919 27.8578C53.021 27.8578 53.3501 27.9831 53.6006 28.2336C53.8433 28.4763 53.9771 28.7989 53.9771 29.1423C53.9771 29.4856 53.8435 29.8083 53.6006 30.0511L46.7586 36.8929C46.2574 37.3941 45.4422 37.394 44.9412 36.8929C44.4402 36.3919 44.4402 35.5765 44.9412 35.0755L51.7832 28.2335C52.0337 27.983 52.3627 27.8578 52.6919 27.8578ZM44.9947 31.815L42.5725 29.3928L46.1005 25.8648L48.5227 28.287L44.9947 31.815ZM24.4153 16.367C23.9143 15.866 23.9143 15.0506 24.4153 14.5496L31.2572 7.7076C31.4998 7.46495 31.8226 7.33114 32.166 7.33114C32.5093 7.33114 32.832 7.46479 33.0746 7.7076C33.5757 8.20864 33.5757 9.024 33.0746 9.52503L26.2326 16.367C25.7316 16.8679 24.9164 16.8679 24.4153 16.367ZM33.0213 12.7856L35.4434 15.2077L31.9155 18.7357L29.4933 16.3135L33.0213 12.7856ZM4.46156 58.664C4.2189 58.9066 3.89626 59.0404 3.55292 59.0404C3.20957 59.0404 2.88693 58.9068 2.64428 58.664C2.40162 58.4213 2.26782 58.0987 2.26782 57.7553C2.26782 57.412 2.40147 57.0894 2.64428 56.8467L29.016 30.4748C29.0335 30.4931 29.0486 30.5129 29.0668 30.5311L30.7772 32.2415C30.7952 32.2595 30.815 32.2746 30.8334 32.2923L4.46156 58.664ZM34.1982 30.6378C33.6972 31.1389 32.882 31.1389 32.3808 30.6378L30.6704 28.9274C30.1694 28.4264 30.1694 27.611 30.6704 27.11L33.0213 24.759L36.5492 28.287L34.1982 30.6378ZM32.7172 21.248C32.7118 21.2425 32.6951 21.2259 32.6951 21.1946C32.6951 21.1633 32.7118 21.1465 32.7172 21.1411L37.8487 16.0096C37.8635 15.995 37.8829 15.9876 37.9022 15.9876C37.9216 15.9876 37.9409 15.995 37.9557 16.0096L45.2986 23.3525C45.3281 23.382 45.3281 23.4301 45.2986 23.4596L40.1671 28.591C40.1617 28.5965 40.1449 28.6131 40.1136 28.6131C40.0823 28.6131 40.0657 28.5965 40.0601 28.591L32.7172 21.248Z" fill="black"/>
</svg>
