<svg width="40" height="40" viewBox="0 0 40 40" fill="none" xmlns="http://www.w3.org/2000/svg">
<g clip-path="url(#clip0)">
<path d="M20.0013 0.0012207C19.6451 0.0012207 19.3562 0.290073 19.3562 0.64634C19.3562 1.00261 19.6451 1.29146 20.0013 1.29146C30.3383 1.28678 38.722 9.66285 38.7267 19.9998C38.7313 30.3368 30.3553 38.7205 20.0183 38.7252C9.68126 38.7298 1.29761 30.3538 1.29293 20.0168C1.291 15.6439 2.82017 11.4083 5.61516 8.04522L6.71186 9.12128L10.9826 1.55402L3.49916 5.97245L4.69005 7.14011C-2.41546 15.5919 -1.32407 28.2036 7.12772 35.3091C10.7326 38.3398 15.2917 40.0006 20.0013 39.9986C31.0463 39.9986 40 31.0449 40 19.9999C40 8.95492 31.0463 0.0012207 20.0013 0.0012207Z" fill="black"/>
<path d="M9.2233 19.2214C8.97146 19.4733 8.97146 19.8817 9.2233 20.1336L16.3196 27.2299C16.5715 27.4817 16.9799 27.4817 17.2318 27.2299L30.7793 13.6824C31.0269 13.4261 31.0198 13.0178 30.7635 12.7702C30.5135 12.5288 30.1172 12.5288 29.8671 12.7702L16.7757 25.8616L10.1355 19.2214C9.88358 18.9695 9.47522 18.9695 9.2233 19.2214Z" fill="black"/>
</g>
<defs>
<clipPath id="clip0">
<path d="M0 0H40V40H0V0Z" fill="white"/>
</clipPath>
</defs>
</svg>
