<svg width="50" height="50" viewBox="0 0 50 50" fill="none" xmlns="http://www.w3.org/2000/svg">
<path d="M0.985289 40.8231C5.61445 43.7606 11.002 45.3126 16.5645 45.3126C24.7103 45.3126 32.1749 42.1835 37.5853 36.5022C42.7624 31.0647 45.6103 23.7585 45.4686 16.3439C47.4311 14.6647 49.7395 11.4585 49.7395 8.33347C49.7395 7.13556 48.4395 6.37514 47.3853 6.98556C45.5415 8.06889 43.8603 8.35222 42.1311 7.86681C38.5999 4.42514 33.3436 3.70014 28.9145 6.08764C25.0436 8.17097 22.8915 11.9835 23.0853 16.1501C16.5457 15.3522 10.504 12.0731 6.29154 6.97722C5.59987 6.14597 4.28737 6.24389 3.73737 7.18556C1.70821 10.6606 1.72904 14.6876 3.49362 17.9397C2.65404 18.0876 2.13529 18.7939 2.13529 19.5585C2.13529 22.8272 3.60612 25.8314 5.97487 27.8814C5.53321 28.3064 5.38737 28.9376 5.57487 29.5001C6.61654 32.6293 8.97487 35.0751 11.9228 36.3001C8.71654 37.8314 5.17071 38.3418 2.01446 37.9543C0.381122 37.7335 -0.425128 39.9293 0.985289 40.8231ZM16.9915 36.8356C18.1603 35.9376 17.5395 34.0668 16.0728 34.0356C13.4895 33.9814 11.1374 32.7085 9.67279 30.7064C10.379 30.6606 11.1103 30.5522 11.8061 30.3647C13.3915 29.9356 13.3165 27.6481 11.7061 27.3251C8.78321 26.7376 6.48946 24.6085 5.62904 21.8668C6.41445 22.0606 7.21446 22.1689 8.01237 22.1835C9.59362 22.1918 10.1915 20.1647 8.90195 19.3168C5.9957 17.4022 4.75612 14.021 5.57696 10.8418C10.652 15.9835 17.5374 19.0814 24.8207 19.4314C25.8645 19.496 26.6478 18.5147 26.4186 17.521C25.429 13.2314 27.8249 10.2251 30.3978 8.83972C32.9436 7.46472 37.0311 7.03556 40.1645 10.3231C41.0957 11.3043 44.2374 11.3418 45.8353 10.9689C45.1186 12.3189 44.0165 13.6001 42.9853 14.321C42.5457 14.6293 42.2936 15.1418 42.3207 15.6772C42.6561 22.521 40.1061 29.3251 35.3249 34.3439C30.5082 39.4001 23.8478 42.1856 16.5665 42.1856C13.6707 42.1856 10.8311 41.7147 8.14779 40.8064C11.3561 40.1856 14.404 38.8272 16.9915 36.8356Z" fill="black"/>
</svg>
